<?xml version="1.0" standalone="no"?>
<svg xmlns:xlink="http://www.w3.org/1999/xlink" id="wave" style="transform:rotate(180deg); transition: 0.3s" viewBox="0 0 1440 400" version="1.1" xmlns="http://www.w3.org/2000/svg"><defs><linearGradient id="sw-gradient-0" x1="0" x2="0" y1="1" y2="0"><stop stop-color="rgba(2, 145, 231, 1)" offset="0%"/><stop stop-color="rgba(2, 145, 231, 1)" offset="100%"/></linearGradient></defs><path style="transform:translate(0, 0px); opacity:1" fill="url(#sw-gradient-0)" d="M0,320L30,313.3C60,307,120,293,180,280C240,267,300,253,360,253.3C420,253,480,267,540,240C600,213,660,147,720,133.3C780,120,840,160,900,173.3C960,187,1020,173,1080,153.3C1140,133,1200,107,1260,86.7C1320,67,1380,53,1440,60C1500,67,1560,93,1620,120C1680,147,1740,173,1800,186.7C1860,200,1920,200,1980,166.7C2040,133,2100,67,2160,86.7C2220,107,2280,213,2340,233.3C2400,253,2460,187,2520,193.3C2580,200,2640,280,2700,313.3C2760,347,2820,333,2880,320C2940,307,3000,293,3060,293.3C3120,293,3180,307,3240,260C3300,213,3360,107,3420,73.3C3480,40,3540,80,3600,120C3660,160,3720,200,3780,200C3840,200,3900,160,3960,140C4020,120,4080,120,4140,153.3C4200,187,4260,253,4290,286.7L4320,320L4320,400L4290,400C4260,400,4200,400,4140,400C4080,400,4020,400,3960,400C3900,400,3840,400,3780,400C3720,400,3660,400,3600,400C3540,400,3480,400,3420,400C3360,400,3300,400,3240,400C3180,400,3120,400,3060,400C3000,400,2940,400,2880,400C2820,400,2760,400,2700,400C2640,400,2580,400,2520,400C2460,400,2400,400,2340,400C2280,400,2220,400,2160,400C2100,400,2040,400,1980,400C1920,400,1860,400,1800,400C1740,400,1680,400,1620,400C1560,400,1500,400,1440,400C1380,400,1320,400,1260,400C1200,400,1140,400,1080,400C1020,400,960,400,900,400C840,400,780,400,720,400C660,400,600,400,540,400C480,400,420,400,360,400C300,400,240,400,180,400C120,400,60,400,30,400L0,400Z"/></svg>