<?xml version="1.0" standalone="no"?>
<svg xmlns:xlink="http://www.w3.org/1999/xlink" id="wave" style="transform:rotate(180deg); transition: 0.3s" viewBox="0 0 1440 310" version="1.1" xmlns="http://www.w3.org/2000/svg"><defs><linearGradient id="sw-gradient-0" x1="0" x2="0" y1="1" y2="0"><stop stop-color="rgba(254, 145, 0, 1)" offset="0%"/><stop stop-color="rgba(255, 152, 0, 1)" offset="100%"/></linearGradient></defs><path style="transform:translate(0, 0px); opacity:1" fill="url(#sw-gradient-0)" d="M0,124L30,139.5C60,155,120,186,180,186C240,186,300,155,360,160.2C420,165,480,207,540,201.5C600,196,660,145,720,129.2C780,114,840,134,900,139.5C960,145,1020,134,1080,108.5C1140,83,1200,41,1260,31C1320,21,1380,41,1440,67.2C1500,93,1560,124,1620,134.3C1680,145,1740,134,1800,149.8C1860,165,1920,207,1980,201.5C2040,196,2100,145,2160,103.3C2220,62,2280,31,2340,41.3C2400,52,2460,103,2520,103.3C2580,103,2640,52,2700,25.8C2760,0,2820,0,2880,41.3C2940,83,3000,165,3060,201.5C3120,238,3180,227,3240,191.2C3300,155,3360,93,3420,103.3C3480,114,3540,196,3600,217C3660,238,3720,196,3780,160.2C3840,124,3900,93,3960,67.2C4020,41,4080,21,4140,15.5C4200,10,4260,21,4290,25.8L4320,31L4320,310L4290,310C4260,310,4200,310,4140,310C4080,310,4020,310,3960,310C3900,310,3840,310,3780,310C3720,310,3660,310,3600,310C3540,310,3480,310,3420,310C3360,310,3300,310,3240,310C3180,310,3120,310,3060,310C3000,310,2940,310,2880,310C2820,310,2760,310,2700,310C2640,310,2580,310,2520,310C2460,310,2400,310,2340,310C2280,310,2220,310,2160,310C2100,310,2040,310,1980,310C1920,310,1860,310,1800,310C1740,310,1680,310,1620,310C1560,310,1500,310,1440,310C1380,310,1320,310,1260,310C1200,310,1140,310,1080,310C1020,310,960,310,900,310C840,310,780,310,720,310C660,310,600,310,540,310C480,310,420,310,360,310C300,310,240,310,180,310C120,310,60,310,30,310L0,310Z"/></svg>